<?xml version="1.0"?>
<!-- Cropped to the phase glyph via the viewBox: a verbatim copy of the upstream favicon.svg (2004x570 canvas, no viewBox) renders as a thin strip in browser tabs. Keep the viewBox when updating this file. -->
<svg xmlns="http://www.w3.org/2000/svg" xmlns:xlink="http://www.w3.org/1999/xlink" xmlns:serif="http://www.serif.com/" width="516" height="516" viewBox="978 8 516 516" version="1.1" xml:space="preserve" style="fill-rule:evenodd;clip-rule:evenodd;stroke-linejoin:round;stroke-miterlimit:2;"><g transform="matrix(-1,0,0,1,2004,0)"><g><g transform="matrix(0.950806,0,0,0.950806,-706.054,-913.516)"><circle cx="1505.13" cy="1237.95" r="102.891" style="fill:#E23D28;"></circle></g><g transform="matrix(0.488122,0,0,0.460648,-78.4608,-418.145)"><g><g transform="matrix(-1,0,0,1,2670.93,-492.64)"><path d="M1409.77,1634.31C1405.21,1634.31 1332.73,1529.19 1213.3,1482.03C1123.7,1446.65 1048.42,1430.03 956.31,1436.46C694.281,1454.75 449.76,1690.33 449.76,1975.23C449.76,2086.79 489.636,2186.89 543.013,2275.93C610.147,2387.93 770.932,2506.3 950.825,2516.71C1129.48,2527.05 1301.98,2461.44 1422.98,2304.54C1276.83,2452.8 1086.87,2512.95 902.882,2453.86C638.91,2369.09 544.24,2117.39 553.11,1975.23C571.828,1675.2 756.114,1523.73 973.883,1487.07C1137.57,1459.52 1301.33,1525.14 1409.77,1634.31Z" style="fill:#4FA3D9;"></path></g><g transform="matrix(-0.835109,0,0,0.835109,2495.51,-166.743)"><path d="M1409.77,1634.31C1405.21,1634.31 1332.73,1529.19 1213.3,1482.03C1123.7,1446.65 1048.42,1430.03 956.31,1436.46C694.281,1454.75 449.76,1690.33 449.76,1975.23C449.76,2127.15 489.636,2186.89 543.013,2275.93C610.147,2387.93 770.932,2506.3 950.825,2516.71C1129.48,2527.05 1301.98,2461.44 1422.98,2304.54C1276.83,2452.8 1086.87,2512.95 902.882,2453.86C638.91,2369.09 544.24,2117.39 553.11,1975.23C571.828,1675.2 756.114,1523.73 973.883,1487.07C1137.57,1459.52 1301.33,1525.14 1409.77,1634.31Z" style="fill:#14406B;"></path></g><g transform="matrix(-0.660808,0,0,0.660808,2338.49,177.75)"><path d="M1409.39,1639.41C1404.83,1639.41 1332.73,1529.19 1213.3,1482.03C1123.7,1446.65 1048.42,1430.03 956.31,1436.46C694.281,1454.75 449.76,1690.33 449.76,1975.23C449.76,2086.79 489.636,2186.89 543.013,2275.93C610.147,2387.93 770.932,2506.3 950.825,2516.71C1129.48,2527.05 1301.98,2461.44 1422.98,2304.54C1276.83,2452.8 1086.87,2512.95 902.882,2453.86C638.91,2369.09 544.24,2117.39 553.11,1975.23C571.828,1675.2 756.114,1523.73 973.883,1487.07C1137.57,1459.52 1300.95,1530.25 1409.39,1639.41Z" style="fill:#8E1F12;"></path></g></g><g><g transform="matrix(-1,0,0,1,2670.93,-492.64)"><path d="M1409.77,1634.31C1405.21,1634.31 1332.73,1529.19 1213.3,1482.03C1123.7,1446.65 1048.42,1430.03 956.31,1436.46C694.281,1454.75 449.76,1690.33 449.76,1975.23C449.76,2086.79 489.636,2186.89 543.013,2275.93C610.147,2387.93 770.932,2506.3 950.825,2516.71C1129.48,2527.05 1301.98,2461.44 1422.98,2304.54C1276.83,2452.8 1086.87,2512.95 902.882,2453.86C638.91,2369.09 544.24,2117.39 553.11,1975.23C571.828,1675.2 756.114,1523.73 973.883,1487.07C1137.57,1459.52 1301.33,1525.14 1409.77,1634.31Z" style="fill:#4FA3D9;"></path></g><g transform="matrix(-0.835109,0,0,0.835109,2495.51,-166.743)"><path d="M1409.77,1634.31C1405.21,1634.31 1332.73,1529.19 1213.3,1482.03C1123.7,1446.65 1048.42,1430.03 956.31,1436.46C694.281,1454.75 449.76,1690.33 449.76,1975.23C449.76,2127.15 489.636,2186.89 543.013,2275.93C610.147,2387.93 770.932,2506.3 950.825,2516.71C1129.48,2527.05 1301.98,2461.44 1422.98,2304.54C1276.83,2452.8 1086.87,2512.95 902.882,2453.86C638.91,2369.09 544.24,2117.39 553.11,1975.23C571.828,1675.2 756.114,1523.73 973.883,1487.07C1137.57,1459.52 1301.33,1525.14 1409.77,1634.31Z" style="fill:#14406B;"></path></g><g transform="matrix(-0.660808,0,0,0.660808,2338.49,177.75)"><path d="M1409.39,1639.41C1404.83,1639.41 1332.73,1529.19 1213.3,1482.03C1123.7,1446.65 1048.42,1430.03 956.31,1436.46C694.281,1454.75 449.76,1690.33 449.76,1975.23C449.76,2086.79 489.636,2186.89 543.013,2275.93C610.147,2387.93 770.932,2506.3 950.825,2516.71C1129.48,2527.05 1301.98,2461.44 1422.98,2304.54C1276.83,2452.8 1086.87,2512.95 902.882,2453.86C638.91,2369.09 544.24,2117.39 553.11,1975.23C571.828,1675.2 756.114,1523.73 973.883,1487.07C1137.57,1459.52 1300.95,1530.25 1409.39,1639.41Z" style="fill:#8E1F12;"></path></g></g></g></g></g></svg>